<svg xmlns="http://www.w3.org/2000/svg" viewBox="0 0 1440 320"><path fill="#0099ff" fill-opacity="1" d="M0,64L6.2,101.3C12.3,139,25,213,37,240C49.2,267,62,245,74,208C86.2,171,98,117,111,101.3C123.1,85,135,107,148,128C160,149,172,171,185,181.3C196.9,192,209,192,222,197.3C233.8,203,246,213,258,197.3C270.8,181,283,139,295,133.3C307.7,128,320,160,332,197.3C344.6,235,357,277,369,266.7C381.5,256,394,192,406,154.7C418.5,117,431,107,443,133.3C455.4,160,468,224,480,240C492.3,256,505,224,517,186.7C529.2,149,542,107,554,85.3C566.2,64,578,64,591,96C603.1,128,615,192,628,229.3C640,267,652,277,665,282.7C676.9,288,689,288,702,277.3C713.8,267,726,245,738,213.3C750.8,181,763,139,775,122.7C787.7,107,800,117,812,133.3C824.6,149,837,171,849,186.7C861.5,203,874,213,886,202.7C898.5,192,911,160,923,144C935.4,128,948,128,960,128C972.3,128,985,128,997,144C1009.2,160,1022,192,1034,197.3C1046.2,203,1058,181,1071,165.3C1083.1,149,1095,139,1108,154.7C1120,171,1132,213,1145,245.3C1156.9,277,1169,299,1182,266.7C1193.8,235,1206,149,1218,117.3C1230.8,85,1243,107,1255,128C1267.7,149,1280,171,1292,192C1304.6,213,1317,235,1329,213.3C1341.5,192,1354,128,1366,106.7C1378.5,85,1391,107,1403,128C1415.4,149,1428,171,1434,181.3L1440,192L1440,0L1433.8,0C1427.7,0,1415,0,1403,0C1390.8,0,1378,0,1366,0C1353.8,0,1342,0,1329,0C1316.9,0,1305,0,1292,0C1280,0,1268,0,1255,0C1243.1,0,1231,0,1218,0C1206.2,0,1194,0,1182,0C1169.2,0,1157,0,1145,0C1132.3,0,1120,0,1108,0C1095.4,0,1083,0,1071,0C1058.5,0,1046,0,1034,0C1021.5,0,1009,0,997,0C984.6,0,972,0,960,0C947.7,0,935,0,923,0C910.8,0,898,0,886,0C873.8,0,862,0,849,0C836.9,0,825,0,812,0C800,0,788,0,775,0C763.1,0,751,0,738,0C726.2,0,714,0,702,0C689.2,0,677,0,665,0C652.3,0,640,0,628,0C615.4,0,603,0,591,0C578.5,0,566,0,554,0C541.5,0,529,0,517,0C504.6,0,492,0,480,0C467.7,0,455,0,443,0C430.8,0,418,0,406,0C393.8,0,382,0,369,0C356.9,0,345,0,332,0C320,0,308,0,295,0C283.1,0,271,0,258,0C246.2,0,234,0,222,0C209.2,0,197,0,185,0C172.3,0,160,0,148,0C135.4,0,123,0,111,0C98.5,0,86,0,74,0C61.5,0,49,0,37,0C24.6,0,12,0,6,0L0,0Z"></path></svg>